<?xml version="1.0" encoding="UTF-8"?>
<!DOCTYPE svg PUBLIC "-//W3C//DTD SVG 1.1//EN" "http://www.w3.org/Graphics/SVG/1.1/DTD/svg11.dtd">
<svg width="177mm" height="92mm" viewBox="0 0 17700 9200" version="1.1" xmlns="http://www.w3.org/2000/svg" xmlns:xlink="http://www.w3.org/1999/xlink" stroke-width="28.222" stroke-linejoin="round" xml:space="preserve">
 <path fill="rgb(255,255,255)" stroke="none" d="M 8856,9178 L -13,9178 -13,-13 17724,-13 17724,9178 8856,9178 Z"/>
 <path fill="none" stroke="rgb(179,179,179)" stroke-linejoin="round" d="M 8976,8348 L 2926,8348 2926,370 15027,370 15027,8348 8976,8348 Z"/>
 <path fill="none" stroke="rgb(179,179,179)" stroke-linejoin="round" d="M 15027,8347 L 2926,8347"/>
 <path fill="none" stroke="rgb(179,179,179)" stroke-linejoin="round" d="M 15027,7017 L 2926,7017"/>
 <path fill="none" stroke="rgb(179,179,179)" stroke-linejoin="round" d="M 15027,5687 L 2926,5687"/>
 <path fill="none" stroke="rgb(179,179,179)" stroke-linejoin="round" d="M 15027,4358 L 2926,4358"/>
 <path fill="none" stroke="rgb(179,179,179)" stroke-linejoin="round" d="M 15027,3028 L 2926,3028"/>
 <path fill="none" stroke="rgb(179,179,179)" stroke-linejoin="round" d="M 15027,1698 L 2926,1698"/>
 <path fill="none" stroke="rgb(179,179,179)" stroke-linejoin="round" d="M 15027,368 L 2926,368"/>
 <path fill="none" stroke="rgb(179,179,179)" stroke-linejoin="round" d="M 2926,8497 L 2926,8347"/>
 <path fill="none" stroke="rgb(179,179,179)" stroke-linejoin="round" d="M 2926,8497 L 2926,8347"/>
 <path fill="none" stroke="rgb(179,179,179)" stroke-linejoin="round" d="M 5951,8497 L 5951,8347"/>
 <path fill="none" stroke="rgb(179,179,179)" stroke-linejoin="round" d="M 5951,8497 L 5951,8347"/>
 <path fill="none" stroke="rgb(179,179,179)" stroke-linejoin="round" d="M 8976,8497 L 8976,8347"/>
 <path fill="none" stroke="rgb(179,179,179)" stroke-linejoin="round" d="M 8976,8497 L 8976,8347"/>
 <path fill="none" stroke="rgb(179,179,179)" stroke-linejoin="round" d="M 12001,8497 L 12001,8347"/>
 <path fill="none" stroke="rgb(179,179,179)" stroke-linejoin="round" d="M 12001,8497 L 12001,8347"/>
 <path fill="none" stroke="rgb(179,179,179)" stroke-linejoin="round" d="M 15027,8497 L 15027,8347"/>
 <path fill="none" stroke="rgb(179,179,179)" stroke-linejoin="round" d="M 15027,8497 L 15027,8347"/>
 <path fill="none" stroke="rgb(179,179,179)" stroke-linejoin="round" d="M 2926,8347 L 15027,8347"/>
 <path fill="none" stroke="rgb(179,179,179)" stroke-linejoin="round" d="M 2776,8347 L 2926,8347"/>
 <path fill="none" stroke="rgb(179,179,179)" stroke-linejoin="round" d="M 2776,8347 L 2926,8347"/>
 <path fill="none" stroke="rgb(179,179,179)" stroke-linejoin="round" d="M 2776,7017 L 2926,7017"/>
 <path fill="none" stroke="rgb(179,179,179)" stroke-linejoin="round" d="M 2776,7017 L 2926,7017"/>
 <path fill="none" stroke="rgb(179,179,179)" stroke-linejoin="round" d="M 2776,5687 L 2926,5687"/>
 <path fill="none" stroke="rgb(179,179,179)" stroke-linejoin="round" d="M 2776,5687 L 2926,5687"/>
 <path fill="none" stroke="rgb(179,179,179)" stroke-linejoin="round" d="M 2776,4358 L 2926,4358"/>
 <path fill="none" stroke="rgb(179,179,179)" stroke-linejoin="round" d="M 2776,4358 L 2926,4358"/>
 <path fill="none" stroke="rgb(179,179,179)" stroke-linejoin="round" d="M 2776,3028 L 2926,3028"/>
 <path fill="none" stroke="rgb(179,179,179)" stroke-linejoin="round" d="M 2776,3028 L 2926,3028"/>
 <path fill="none" stroke="rgb(179,179,179)" stroke-linejoin="round" d="M 2776,1698 L 2926,1698"/>
 <path fill="none" stroke="rgb(179,179,179)" stroke-linejoin="round" d="M 2776,1698 L 2926,1698"/>
 <path fill="none" stroke="rgb(179,179,179)" stroke-linejoin="round" d="M 2776,368 L 2926,368"/>
 <path fill="none" stroke="rgb(179,179,179)" stroke-linejoin="round" d="M 2776,368 L 2926,368"/>
 <path fill="none" stroke="rgb(179,179,179)" stroke-linejoin="round" d="M 2926,8347 L 2926,368"/>
 <path fill="rgb(248,203,173)" stroke="none" d="M 3304,8347 L 4060,8347 4060,5557 3304,5557 3304,8347 Z"/>
 <path fill="rgb(248,203,173)" stroke="none" d="M 6329,8347 L 7086,8347 7086,6403 6329,6403 6329,8347 Z"/>
 <path fill="rgb(248,203,173)" stroke="none" d="M 9354,8347 L 10110,8347 10110,785 9354,785 9354,8347 Z"/>
 <path fill="rgb(248,203,173)" stroke="none" d="M 12379,8347 L 13136,8347 13136,5627 12379,5627 12379,8347 Z"/>
 <path fill="rgb(198,224,180)" stroke="none" d="M 4060,8347 L 4816,8347 4816,6159 4060,6159 4060,8347 Z"/>
 <path fill="rgb(198,224,180)" stroke="none" d="M 7086,8347 L 7842,8347 7842,6768 7086,6768 7086,8347 Z"/>
 <path fill="rgb(198,224,180)" stroke="none" d="M 10110,8347 L 10866,8347 10866,1087 10110,1087 10110,8347 Z"/>
 <path fill="rgb(198,224,180)" stroke="none" d="M 13136,8347 L 13892,8347 13892,6088 13136,6088 13136,8347 Z"/>
 <path fill="rgb(189,215,238)" stroke="none" d="M 4816,8347 L 5573,8347 5573,6162 4816,6162 4816,8347 Z"/>
 <path fill="rgb(189,215,238)" stroke="none" d="M 7842,8347 L 8598,8347 8598,6878 7842,6878 7842,8347 Z"/>
 <path fill="rgb(189,215,238)" stroke="none" d="M 10866,8347 L 11623,8347 11623,2492 10866,2492 10866,8347 Z"/>
 <path fill="rgb(189,215,238)" stroke="none" d="M 13892,8347 L 14648,8347 14648,7117 13892,7117 13892,8347 Z"/>
 <text class="SVGTextShape"><tspan class="TextParagraph"><tspan class="TextPosition" x="4213" y="8915"><tspan font-family="Liberation Sans, sans-serif" font-size="353px" font-weight="400" fill="rgb(0,0,0)" stroke="none" style="white-space: pre">big</tspan></tspan></tspan></text>
 <text class="SVGTextShape"><tspan class="TextParagraph"><tspan class="TextPosition" x="6948" y="8915"><tspan font-family="Liberation Sans, sans-serif" font-size="353px" font-weight="400" fill="rgb(0,0,0)" stroke="none" style="white-space: pre">nested</tspan></tspan></tspan></text>
 <text class="SVGTextShape"><tspan class="TextParagraph"><tspan class="TextPosition" x="9456" y="8915"><tspan font-family="Liberation Sans, sans-serif" font-size="353px" font-weight="400" fill="rgb(0,0,0)" stroke="none" style="white-space: pre">small_objects</tspan></tspan></tspan></text>
 <text class="SVGTextShape"><tspan class="TextParagraph"><tspan class="TextPosition" x="12522" y="8915"><tspan font-family="Liberation Sans, sans-serif" font-size="353px" font-weight="400" fill="rgb(0,0,0)" stroke="none" style="white-space: pre">strings_array</tspan></tspan></tspan></text>
 <text class="SVGTextShape"><tspan class="TextParagraph"><tspan class="TextPosition" x="2491" y="8467"><tspan font-family="Liberation Sans, sans-serif" font-size="353px" font-weight="400" fill="rgb(0,0,0)" stroke="none" style="white-space: pre">0</tspan></tspan></tspan></text>
 <text class="SVGTextShape"><tspan class="TextParagraph"><tspan class="TextPosition" x="1353" y="7137"><tspan font-family="Liberation Sans, sans-serif" font-size="353px" font-weight="400" fill="rgb(0,0,0)" stroke="none" style="white-space: pre">1000000</tspan></tspan></tspan></text>
 <text class="SVGTextShape"><tspan class="TextParagraph"><tspan class="TextPosition" x="1353" y="5807"><tspan font-family="Liberation Sans, sans-serif" font-size="353px" font-weight="400" fill="rgb(0,0,0)" stroke="none" style="white-space: pre">2000000</tspan></tspan></tspan></text>
 <text class="SVGTextShape"><tspan class="TextParagraph"><tspan class="TextPosition" x="1353" y="4478"><tspan font-family="Liberation Sans, sans-serif" font-size="353px" font-weight="400" fill="rgb(0,0,0)" stroke="none" style="white-space: pre">3000000</tspan></tspan></tspan></text>
 <text class="SVGTextShape"><tspan class="TextParagraph"><tspan class="TextPosition" x="1353" y="3148"><tspan font-family="Liberation Sans, sans-serif" font-size="353px" font-weight="400" fill="rgb(0,0,0)" stroke="none" style="white-space: pre">4000000</tspan></tspan></tspan></text>
 <text class="SVGTextShape"><tspan class="TextParagraph"><tspan class="TextPosition" x="1353" y="1818"><tspan font-family="Liberation Sans, sans-serif" font-size="353px" font-weight="400" fill="rgb(0,0,0)" stroke="none" style="white-space: pre">5000000</tspan></tspan></tspan></text>
 <text class="SVGTextShape"><tspan class="TextParagraph"><tspan class="TextPosition" x="1353" y="488"><tspan font-family="Liberation Sans, sans-serif" font-size="353px" font-weight="400" fill="rgb(0,0,0)" stroke="none" style="white-space: pre">6000000</tspan></tspan></tspan></text>
 <path fill="rgb(248,203,173)" stroke="none" d="M 15603,4190 L 15497,4190 15497,3979 15708,3979 15708,4190 15603,4190 Z"/>
 <path fill="rgb(198,224,180)" stroke="none" d="M 15603,4687 L 15497,4687 15497,4477 15708,4477 15708,4687 15603,4687 Z"/>
 <path fill="rgb(189,215,238)" stroke="none" d="M 15603,5185 L 15497,5185 15497,4974 15708,4974 15708,5185 15603,5185 Z"/>
 <text class="SVGTextShape"><tspan class="TextParagraph"><tspan class="TextPosition" x="15808" y="4204"><tspan font-family="Liberation Sans, sans-serif" font-size="353px" font-weight="400" fill="rgb(0,0,0)" stroke="none" style="white-space: pre">yaml-rust</tspan></tspan></tspan></text>
 <text class="SVGTextShape"><tspan class="TextParagraph"><tspan class="TextPosition" x="15808" y="4701"><tspan font-family="Liberation Sans, sans-serif" font-size="353px" font-weight="400" fill="rgb(0,0,0)" stroke="none" style="white-space: pre">yaml-rust2</tspan></tspan></tspan></text>
 <text class="SVGTextShape"><tspan class="TextParagraph"><tspan class="TextPosition" x="15808" y="5199"><tspan font-family="Liberation Sans, sans-serif" font-size="353px" font-weight="400" fill="rgb(0,0,0)" stroke="none" style="white-space: pre">libfyaml</tspan></tspan></tspan></text>
 <text class="SVGTextShape" transform="rotate(-90 -15451 4894)"><tspan class="TextParagraph"><tspan class="TextPosition" x="824" y="6394"><tspan font-family="Liberation Sans, sans-serif" font-size="318px" font-weight="400" fill="rgb(0,0,0)" stroke="none" style="white-space: pre">Time in ms (less is better)</tspan></tspan></tspan></text>
</svg>